<svg width="140" height="120" viewBox="0 0 140 120" fill="none" xmlns="http://www.w3.org/2000/svg">
<g style="mix-blend-mode:multiply" opacity="0.3">
<path d="M96.9561 115.352C96.9561 116.802 88.4961 117.972 72.6261 117.972C56.7561 117.972 43.9561 116.842 43.9561 115.352C43.9561 114.632 49.3161 113.352 54.5161 112.892C55.5161 112.812 57.6761 116.742 59.6261 116.642C60.9361 116.562 59.4761 117.132 62.7761 117.102C66.2861 117.102 68.0061 112.882 68.7061 112.862C71.4661 112.782 69.6361 112.742 72.7061 112.742C74.1861 112.742 73.0461 112.742 74.4561 112.742C75.1161 112.742 76.7261 115.682 77.9461 116.182C79.504 116.943 81.2123 117.346 82.9461 117.362C84.8561 117.362 86.8761 115.212 87.8361 114.882C88.5061 114.662 87.9561 112.882 88.6861 112.932C96.7661 113.432 96.9561 114.462 96.9561 115.352Z" fill="#262626"/>
</g>
<path d="M80.5761 53.7417C86.8861 50.6517 92.0861 43.3517 91.9561 35.8517C91.9063 32.1425 90.7573 28.5315 88.6546 25.4755C86.5519 22.4195 83.5899 20.0559 80.1435 18.6837C76.6971 17.3115 72.9212 16.9925 69.2934 17.7669C65.6656 18.5414 62.3491 20.3745 59.7634 23.0344C57.1777 25.6942 55.4391 29.0613 54.7676 32.7095C54.0961 36.3577 54.5218 40.1232 55.9909 43.5294C57.46 46.9356 59.9064 49.8295 63.0207 51.8449C66.1349 53.8604 69.777 54.9068 73.4861 54.8517L76.2261 54.7217" stroke="var(--illustration-stroke-color, #686868)" stroke-width="0.9" stroke-linecap="round" stroke-linejoin="round"/>
<path d="M85.2061 56.8119C85.4981 54.6946 85.5551 52.5516 85.3761 50.4219" stroke="var(--illustration-stroke-color, #686868)" stroke-width="0.9" stroke-linecap="round" stroke-linejoin="round"/>
<path d="M74.2061 91.4118L74.4661 110.912C74.6794 112.737 75.5645 114.418 76.949 115.627C78.3335 116.836 80.1184 117.487 81.9561 117.452V117.452C83.8117 117.426 85.5895 116.703 86.9365 115.426C88.2834 114.15 89.1007 112.413 89.2261 110.562C89.7261 103.352 88.9361 91.6818 88.0961 77.5618" stroke="var(--illustration-stroke-color, #686868)" stroke-width="0.9" stroke-linecap="round" stroke-linejoin="round"/>
<path d="M55.3861 66.4119L54.8461 82.2419L54.3061 108.482C54.4461 114.892 56.8561 117.332 61.5161 117.262H62.0561C63.5652 117.239 65.0295 116.745 66.2436 115.848C67.4577 114.952 68.3607 113.698 68.8261 112.262L70.7461 93.1319L75.3261 90.3519" stroke="var(--illustration-stroke-color, #686868)" stroke-width="0.9" stroke-linecap="round" stroke-linejoin="round"/>
<path d="M55.6461 67.9919C58.0378 65.1886 59.5243 61.7266 59.9099 58.0619C60.2955 54.3972 59.562 50.7016 57.8061 47.4619" stroke="var(--illustration-stroke-color, #686868)" stroke-width="0.9" stroke-linecap="round" stroke-linejoin="round"/>
<path d="M88.2261 48.0718C88.2261 48.0718 89.9561 53.1818 86.5861 59.5118" stroke="var(--illustration-stroke-color, #686868)" stroke-width="0.9" stroke-linecap="round" stroke-linejoin="round"/>
<path d="M35.4061 76.3119C36.0689 76.3119 36.6061 75.7746 36.6061 75.1119C36.6061 74.4491 36.0689 73.9119 35.4061 73.9119C34.7434 73.9119 34.2061 74.4491 34.2061 75.1119C34.2061 75.7746 34.7434 76.3119 35.4061 76.3119Z" stroke="var(--illustration-stroke-color, #686868)" stroke-width="0.9" stroke-linecap="round" stroke-linejoin="round"/>
<path d="M113.386 56.2418C114.049 56.2418 114.586 55.7045 114.586 55.0418C114.586 54.3791 114.049 53.8418 113.386 53.8418C112.723 53.8418 112.186 54.3791 112.186 55.0418C112.186 55.7045 112.723 56.2418 113.386 56.2418Z" stroke="var(--illustration-stroke-color, #686868)" stroke-width="0.9" stroke-linecap="round" stroke-linejoin="round"/>
<path d="M88.1461 47.8218C88.1461 47.8218 104.286 71.7618 92.0361 76.8218C82.5361 80.7018 78.7861 70.0718 74.7161 60.0318C74.4051 59.154 74.3746 58.2012 74.6291 57.3054C74.8835 56.4096 75.4101 55.615 76.1361 55.0318V55.0318C76.7948 54.5491 77.546 54.2076 78.3427 54.0288C79.1395 53.85 79.9646 53.8377 80.7663 53.9926C81.568 54.1475 82.3291 54.4663 83.0019 54.929C83.6747 55.3918 84.2447 55.9885 84.6761 56.6818C87.0456 60.2671 89.6373 63.7005 92.4361 66.9618" stroke="var(--illustration-stroke-color, #686868)" stroke-width="0.9" stroke-linecap="round" stroke-linejoin="round"/>
<path d="M55.5261 66.3519C56.5088 63.6127 56.9337 60.7047 56.7757 57.7989C56.6177 54.8931 55.88 52.0483 54.6061 49.4319" stroke="var(--illustration-stroke-color, #686868)" stroke-width="0.9" stroke-linecap="round" stroke-linejoin="round"/>
<path d="M50.1561 53.8218V48.8218C50.1561 48.2197 50.3953 47.6423 50.821 47.2166C51.2467 46.7909 51.8241 46.5518 52.4261 46.5518H57.4261" stroke="var(--illustration-stroke-color, #686868)" stroke-width="0.9" stroke-linecap="round" stroke-linejoin="round"/>
<path d="M57.9561 46.9717C54.8359 48.7035 52.199 51.1891 50.2861 54.2017C44.4261 62.9417 45.5661 75.8717 54.4661 81.4917" stroke="var(--illustration-stroke-color, #686868)" stroke-width="0.9" stroke-linecap="round" stroke-linejoin="round"/>
<path opacity="0.7" d="M45.8361 22.2017C47.1229 22.2017 48.1661 21.1586 48.1661 19.8717C48.1661 18.5849 47.1229 17.5417 45.8361 17.5417C44.5493 17.5417 43.5061 18.5849 43.5061 19.8717C43.5061 21.1586 44.5493 22.2017 45.8361 22.2017Z" fill="url(#paint0_linear_1257_2)"/>
<path d="M45.8361 22.2017C47.1229 22.2017 48.1661 21.1586 48.1661 19.8717C48.1661 18.5849 47.1229 17.5417 45.8361 17.5417C44.5493 17.5417 43.5061 18.5849 43.5061 19.8717C43.5061 21.1586 44.5493 22.2017 45.8361 22.2017Z" stroke="var(--illustration-stroke-color, #686868)" stroke-width="0.9" stroke-linecap="round" stroke-linejoin="round"/>
<path d="M44.0461 24.8217C36.1661 26.9917 29.6061 35.6817 26.8561 39.8217C26.793 39.9127 26.6998 39.9784 26.593 40.0074C26.4861 40.0363 26.3725 40.0266 26.2721 39.98C26.1717 39.9334 26.0909 39.8528 26.0441 39.7525C25.9973 39.6522 25.9874 39.5386 26.0161 39.4317C29.2161 27.7517 41.3561 18.7517 41.3561 18.7517" stroke="var(--illustration-stroke-color, #686868)" stroke-width="0.9" stroke-linecap="round" stroke-linejoin="round"/>
<path d="M42.4161 49.1718L43.4261 49.7318L42.4161 50.3018L41.8561 51.3218L41.3061 50.3018L40.2861 49.7318L41.3061 49.1718L41.8561 48.1418L42.4161 49.1718Z" fill="var(--illustration-stroke-color, #686868)"/>
<path d="M105.576 38.4319L106.586 38.9919L105.576 39.5519L105.016 40.5819L104.466 39.5519L103.446 38.9919L104.466 38.4319L105.016 37.4019L105.576 38.4319Z" fill="var(--illustration-stroke-color, #686868)"/>
<path d="M106.576 88.4319L107.586 88.9919L106.576 89.5518L106.016 90.5819L105.466 89.5518L104.446 88.9919L105.466 88.4319L106.016 87.4019L106.576 88.4319Z" fill="var(--illustration-stroke-color, #686868)"/>
<path d="M73.1561 14.6018L73.2761 17.1118" stroke="var(--illustration-stroke-color, #686868)" stroke-linecap="round" stroke-linejoin="round"/>
<path d="M73.1659 14.4454C74.6458 14.4198 75.8246 13.1905 75.7988 11.6995C75.7731 10.2086 74.5525 9.02065 73.0726 9.04622C71.5927 9.0718 70.4139 10.3012 70.4397 11.7921C70.4654 13.2831 71.686 14.471 73.1659 14.4454Z" fill="#FF8853"/>
<path d="M73.1659 14.4454C74.6458 14.4198 75.8246 13.1905 75.7988 11.6995C75.7731 10.2086 74.5525 9.02065 73.0726 9.04622C71.5927 9.0718 70.4139 10.3012 70.4397 11.7921C70.4654 13.2831 71.686 14.471 73.1659 14.4454Z" stroke="var(--illustration-stroke-color, #686868)" stroke-width="0.9" stroke-linecap="round" stroke-linejoin="round"/>
<path d="M91.7061 32.5718L94.4161 33.5718C94.6629 33.6944 94.8699 33.8844 95.0133 34.1198C95.1566 34.3551 95.2304 34.6262 95.2261 34.9018V37.5918C95.2318 37.9004 95.1374 38.2025 94.9572 38.453C94.777 38.7035 94.5205 38.889 94.2261 38.9818L91.4261 39.8218" stroke="var(--illustration-stroke-color, #686868)" stroke-linecap="round" stroke-linejoin="round"/>
<path d="M54.7561 32.5918L52.1161 33.7918C51.8678 33.9152 51.6597 34.1067 51.5163 34.344C51.3728 34.5813 51.2999 34.8546 51.3061 35.1318V37.8118C51.3005 38.1204 51.3948 38.4225 51.575 38.673C51.7553 38.9235 52.0117 39.109 52.3061 39.2018L54.6861 39.7518" stroke="var(--illustration-stroke-color, #686868)" stroke-linecap="round" stroke-linejoin="round"/>
<path d="M88.4061 39.9418C88.5961 45.9418 82.0861 52.7818 73.8061 53.0418C65.5261 53.3018 58.6061 46.9218 58.4161 40.8718C58.2261 34.8218 58.4161 29.8718 73.0661 29.4618C87.0561 29.0318 88.2161 33.8918 88.4061 39.9418Z" stroke="var(--illustration-stroke-color, #686868)" stroke-linecap="round" stroke-linejoin="round"/>
<defs>
<linearGradient id="paint0_linear_1257_2" x1="43.5061" y1="19.8717" x2="48.1661" y2="19.8717" gradientUnits="userSpaceOnUse">
<stop stop-color="#FF7002"/>
<stop offset="0.3" stop-color="#FE7304"/>
<stop offset="0.5" stop-color="#FC7C0A"/>
<stop offset="0.68" stop-color="#F88B15"/>
<stop offset="0.84" stop-color="#F3A125"/>
<stop offset="0.98" stop-color="#ECBD39"/>
<stop offset="1" stop-color="#EBC03B"/>
</linearGradient>
</defs>
</svg>
